# xmcd
#
# Track frame offsets:
#	150
#	21029
#	33612
#	47927
#	66736
#	83495
#	99154
#	116547
#	143272
#	164193
#	184916
#	209841
#	228504
#	248729
#	271017
#	289009
#	306986
#
# Disc length: 4320
#
# Revision: 1
# Processed by: cddbd v1.5.2PL0 Copyright (c) Steve Scherf et al.
# Submitted via: Broken X Disk Manager 4.02.2262
#
DISCID=f610de11
DTITLE=Алла Пугачева - Алла в Рождественских встречах 2
DYEAR=2002
DGENRE=Rhythmic Soul
TTITLE0=Âñòðå÷à â ïóòè
TTITLE1=Ïðèäóìàé ÷òî-íèáóäü
TTITLE2=×àî!
TTITLE3=Ìèìîõîäîì
TTITLE4=Åñëè ÿ äåëàþ òåáå õîðîøå
TTITLE5=Òû íå ìóæ÷èíà
TTITLE6=Êðèñòèàí
TTITLE7=Áåãëåö
TTITLE8=Îçåðî íàäåæäû
TTITLE9=Ðîæäåñòâåíñêèé áàë
TTITLE10=Áîëüøàê
TTITLE11=Íå îòðåêàþòñÿ ëþáÿ
TTITLE12=Ñûãðàåì â ëþáîâü
TTITLE13=Îñåííèé ïîöåëóé
TTITLE14=Áëèçêèå ëþäè
TTITLE15=Ñíåæíûé ìàëü÷èê
TTITLE16=Àõ, êàê æèâåòñÿ ìíå ñåãîäÿ
EXTD=YEAR: 2002
EXTT0=
EXTT1=
EXTT2=
EXTT3=
EXTT4=
EXTT5=
EXTT6=
EXTT7=
EXTT8=
EXTT9=
EXTT10=
EXTT11=
EXTT12=
EXTT13=
EXTT14=
EXTT15=
EXTT16=
PLAYORDER=
